<svg width="29" height="29" viewBox="0 0 29 29" fill="none" xmlns="http://www.w3.org/2000/svg">
<path d="M14.0333 28.0667C21.7837 28.0667 28.0667 21.7837 28.0667 14.0333C28.0667 6.28294 21.7837 0 14.0333 0C6.28294 0 0 6.28294 0 14.0333C0 21.7837 6.28294 28.0667 14.0333 28.0667Z" fill="#334155"/>
<path d="M14.0333 25.5C20.3662 25.5 25.5 20.3662 25.5 14.0333C25.5 7.70047 20.3662 2.56667 14.0333 2.56667C7.70047 2.56667 2.56667 7.70047 2.56667 14.0333C2.56667 20.3662 7.70047 25.5 14.0333 25.5Z" fill="#F8FAFC"/>
<path d="M20.6333 12.8667H15.2V5C15.2 4.36666 14.6667 3.83333 14.0333 3.83333C13.4 3.83333 12.8667 4.36666 12.8667 5V13.8667C12.8667 13.9 12.8667 13.9333 12.8667 13.9667C12.8667 14 12.8667 14.0333 12.8667 14.0667C12.8667 14.7 13.4 15.2333 14.0333 15.2333H20.6333C21.2667 15.2333 21.8 14.7 21.8 14.0667C21.8 13.4 21.2667 12.8667 20.6333 12.8667Z" fill="#0F172A"/>
<path d="M14.0333 16.2667C15.2668 16.2667 16.2667 15.2668 16.2667 14.0333C16.2667 12.7999 15.2668 11.8 14.0333 11.8C12.7999 11.8 11.8 12.7999 11.8 14.0333C11.8 15.2668 12.7999 16.2667 14.0333 16.2667Z" fill="#F59E0B"/>
</svg>
